<?xml version="1.0" encoding="utf-8"?>
<!-- Generator: Adobe Illustrator 21.0.0, SVG Export Plug-In . SVG Version: 6.00 Build 0)  -->
<svg version="1.1" id="Layer_1" xmlns="http://www.w3.org/2000/svg" xmlns:xlink="http://www.w3.org/1999/xlink" x="0px" y="0px"
	 viewBox="0 0 800 800" style="enable-background:new 0 0 800 800;" xml:space="preserve">
<style type="text/css">
	.st0{fill:#7C0018;}
	.st1{font-family:'Heavitas';}
	.st2{font-size:143.5446px;}
	.st3{letter-spacing:-10;}
</style>
<g>
	<g>
		<path class="st0" d="M630.5,330.8c0,66.1-21.5,127.2-57.6,176.7l182.4,182.5c18,18,18,47.2,0,65.3c-18,18-47.2,18-65.3,0
			L507.6,572.8c-49.6,36.3-110.6,57.6-176.7,57.6c-165.5,0-299.6-134.1-299.6-299.6S165.4,31.2,330.9,31.2S630.5,165.3,630.5,330.8z
			 M330.9,538.2c27.2,0,54.2-5.4,79.4-15.8c25.2-10.4,48-25.7,67.3-45c19.3-19.3,34.5-42.1,45-67.3c10.4-25.2,15.8-52.1,15.8-79.4
			s-5.4-54.2-15.8-79.4c-10.4-25.2-25.7-48-45-67.3c-19.3-19.3-42.1-34.5-67.3-45c-25.2-10.4-52.1-15.8-79.4-15.8
			c-27.2,0-54.2,5.4-79.4,15.8c-25.2,10.4-48,25.7-67.3,45c-19.3,19.3-34.5,42.1-45,67.3c-10.4,25.2-15.8,52.1-15.8,79.4
			s5.4,54.2,15.8,79.4c10.4,25.2,25.7,48,45,67.3c19.3,19.3,42.1,34.5,67.3,45C276.7,532.9,303.6,538.2,330.9,538.2z"/>
	</g>
	<text transform="matrix(1 0 0 1 89.9932 320.0493)"><tspan x="0" y="0" class="st1 st2 st3">drive </tspan><tspan x="-22.8" y="107.2" class="st1 st2 st3">finder</tspan></text>
</g>
</svg>
