<svg width="800" height="800" viewBox="0 0 800 800" fill="none" xmlns="http://www.w3.org/2000/svg">
<g clip-path="url(#clip0_1_3)">
<path d="M702.9 370.4C702.9 415.9 688.1 457.9 663.3 492L788.8 617.6C801.2 630 801.2 650.1 788.8 662.5C776.4 674.9 756.3 674.9 743.9 662.5L618.3 537C584.2 562 542.2 576.6 496.7 576.6C382.8 576.6 290.5 484.3 290.5 370.4C290.5 256.5 382.8 164.2 496.7 164.2C610.6 164.2 702.9 256.5 702.9 370.4ZM496.7 513.2C515.4 513.2 534 509.5 551.3 502.3C568.6 495.1 584.4 484.6 597.6 471.4C610.9 458.1 621.4 442.4 628.5 425.1C635.7 407.8 639.4 389.2 639.4 370.5C639.4 351.8 635.7 333.2 628.5 315.9C621.3 298.6 610.8 282.8 597.6 269.6C584.3 256.3 568.6 245.8 551.3 238.7C534 231.5 515.4 227.8 496.7 227.8C478 227.8 459.4 231.5 442.1 238.7C424.8 245.9 409 256.4 395.8 269.6C382.5 282.9 372 298.6 364.9 315.9C357.7 333.2 354 351.8 354 370.5C354 389.2 357.7 407.8 364.9 425.1C372.1 442.4 382.6 458.2 395.8 471.4C409.1 484.7 424.8 495.2 442.1 502.3C459.4 509.5 477.9 513.2 496.7 513.2Z" fill="#7C0018"/>
<path d="M40.012 316.258V188.327C40.012 187.08 40.4484 186.02 41.3213 185.147C42.1941 184.274 43.2539 183.838 44.5008 183.838H95.5613C115.138 183.838 131.16 189.574 143.629 201.045C150.362 207.28 155.475 214.699 158.966 223.302C162.457 231.906 164.203 241.569 164.203 252.293C164.203 263.016 162.457 272.742 158.966 281.47C155.475 290.074 150.362 297.493 143.629 303.727C137.395 309.338 130.225 313.578 122.12 316.445C114.14 319.313 105.287 320.747 95.5613 320.747H44.5008C43.2539 320.747 42.1941 320.311 41.3213 319.438C40.4484 318.565 40.012 317.505 40.012 316.258ZM81.5337 286.333H95.5613C99.0526 286.333 102.669 285.896 106.409 285.024C110.15 284.151 113.517 282.53 116.509 280.161C119.502 277.667 121.933 274.238 123.803 269.874C125.799 265.385 126.796 259.587 126.796 252.48C126.796 245.372 125.799 239.637 123.803 235.272C121.933 230.784 119.439 227.355 116.322 224.986C113.33 222.492 109.963 220.808 106.222 219.936C102.606 219.063 99.0526 218.626 95.5613 218.626H81.5337C80.2868 218.626 79.2269 219.063 78.3541 219.936C77.4813 220.808 77.0449 221.868 77.0449 223.115V281.844C77.0449 283.091 77.4813 284.151 78.3541 285.024C79.2269 285.896 80.2868 286.333 81.5337 286.333ZM219.216 320.747H191.348C190.101 320.747 189.041 320.311 188.168 319.438C187.295 318.565 186.859 317.505 186.859 316.258V188.327C186.859 187.08 187.295 186.02 188.168 185.147C189.041 184.274 190.101 183.838 191.348 183.838H249.515C256.747 183.838 263.418 185.085 269.528 187.579C275.638 189.948 280.813 193.314 285.052 197.678C289.416 202.043 292.783 207.217 295.152 213.202C297.646 219.187 298.893 225.796 298.893 233.028C298.893 237.018 298.394 241.008 297.396 244.998C296.524 248.864 295.214 252.542 293.469 256.033C291.723 259.525 289.666 262.704 287.296 265.572C284.927 268.315 282.247 270.622 279.254 272.492C278.256 273.24 277.571 274.176 277.197 275.298C276.947 276.295 277.197 277.293 277.945 278.29C282.683 284.525 287.671 290.946 292.908 297.555C298.144 304.163 302.82 310.211 306.935 315.697C307.683 316.695 307.87 317.817 307.496 319.064C307.122 320.186 306.312 320.747 305.065 320.747H270.276C269.029 320.747 267.658 320.435 266.162 319.812C264.79 319.064 263.73 318.191 262.982 317.194C258.992 311.957 255.002 306.657 251.012 301.296C247.146 295.934 243.281 290.51 239.416 285.024C238.667 284.026 237.608 283.216 236.236 282.592C234.864 281.844 233.555 281.47 232.308 281.47H228.194C226.947 281.47 225.887 281.906 225.014 282.779C224.141 283.652 223.705 284.712 223.705 285.959V316.258C223.705 317.505 223.268 318.565 222.395 319.438C221.523 320.311 220.463 320.747 219.216 320.747ZM228.194 247.056H248.019C249.515 247.056 251.074 246.806 252.695 246.307C254.316 245.684 255.812 244.811 257.184 243.689C258.555 242.442 259.678 240.946 260.551 239.2C261.423 237.454 261.86 235.397 261.86 233.028C261.86 231.781 261.61 230.347 261.112 228.726C260.738 226.981 259.989 225.36 258.867 223.863C257.87 222.242 256.436 220.933 254.565 219.936C252.82 218.813 250.638 218.252 248.019 218.252H228.194C226.947 218.252 225.887 218.689 225.014 219.562C224.141 220.434 223.705 221.494 223.705 222.741V242.567C223.705 243.814 224.141 244.874 225.014 245.746C225.887 246.619 226.947 247.056 228.194 247.056ZM355.513 320.747H327.271C325.899 320.747 324.777 320.311 323.904 319.438C323.156 318.565 322.782 317.505 322.782 316.258V188.514C322.782 187.267 323.156 186.207 323.904 185.334C324.777 184.461 325.899 184.025 327.271 184.025H355.513C356.76 184.025 357.82 184.461 358.692 185.334C359.565 186.207 360.002 187.267 360.002 188.514V316.258C360.002 317.505 359.565 318.565 358.692 319.438C357.82 320.311 356.76 320.747 355.513 320.747ZM430.485 316.632L374 189.262C373.377 187.89 373.377 186.643 374 185.521C374.499 184.399 375.559 183.838 377.18 183.838H407.666C408.913 183.838 410.098 184.274 411.22 185.147C412.467 185.895 413.402 186.83 414.025 187.953L446.944 263.141C447.567 264.263 448.377 264.824 449.375 264.824C450.373 264.824 451.183 264.263 451.806 263.141L484.537 187.953C485.161 186.83 486.034 185.895 487.156 185.147C488.403 184.274 489.65 183.838 490.897 183.838H521.944C523.316 183.838 524.313 184.399 524.937 185.521C525.56 186.519 525.623 187.516 525.124 188.514L468.078 316.632C467.455 317.755 466.52 318.752 465.273 319.625C464.151 320.373 462.966 320.747 461.719 320.747H436.844C435.597 320.747 434.35 320.373 433.103 319.625C431.981 318.752 431.108 317.755 430.485 316.632ZM576.947 222.741V230.597C576.947 231.843 577.384 232.903 578.256 233.776C579.129 234.649 580.189 235.085 581.436 235.085H632.122C633.369 235.085 634.429 235.522 635.302 236.395C636.175 237.267 636.611 238.327 636.611 239.574V265.385C636.611 266.632 636.175 267.692 635.302 268.565C634.429 269.437 633.369 269.874 632.122 269.874H581.436C580.189 269.874 579.129 270.31 578.256 271.183C577.384 272.056 576.947 273.116 576.947 274.363V281.47C576.947 282.717 577.384 283.777 578.256 284.65C579.129 285.522 580.189 285.959 581.436 285.959H639.604C640.851 285.959 641.91 286.395 642.783 287.268C643.656 288.141 644.093 289.201 644.093 290.448V316.258C644.093 317.505 643.656 318.565 642.783 319.438C641.91 320.311 640.851 320.747 639.604 320.747H544.403C543.156 320.747 542.096 320.311 541.224 319.438C540.351 318.565 539.914 317.505 539.914 316.258V188.327C539.914 187.08 540.351 186.02 541.224 185.147C542.096 184.274 543.156 183.838 544.403 183.838H639.604C640.851 183.838 641.91 184.274 642.783 185.147C643.656 186.02 644.093 187.08 644.093 188.327V213.763C644.093 215.01 643.656 216.07 642.783 216.943C641.91 217.816 640.851 218.252 639.604 218.252H581.436C580.189 218.252 579.129 218.689 578.256 219.562C577.384 220.434 576.947 221.494 576.947 222.741Z" fill="black"/>
<path d="M46.9708 362.628V370.484C46.9708 371.731 47.4072 372.79 48.28 373.663C49.1528 374.536 50.2127 374.972 51.4596 374.972H101.959C103.206 374.972 104.266 375.409 105.139 376.282C106.011 377.155 106.448 378.214 106.448 379.461V405.646C106.448 406.893 106.011 407.953 105.139 408.826C104.266 409.699 103.206 410.135 101.959 410.135H51.4596C50.2127 410.135 49.1528 410.571 48.28 411.444C47.4072 412.317 46.9708 413.377 46.9708 414.624V455.958C46.9708 457.205 46.5344 458.265 45.6615 459.138C44.7887 460.011 43.7288 460.447 42.4819 460.447H14.2397C12.9928 460.447 11.933 460.011 11.0601 459.138C10.1873 458.265 9.7509 457.205 9.7509 455.958V328.027C9.7509 326.78 10.1873 325.72 11.0601 324.847C11.933 323.974 12.9928 323.538 14.2397 323.538H109.44C110.687 323.538 111.747 323.974 112.62 324.847C113.493 325.72 113.929 326.78 113.929 328.027V353.65C113.929 354.897 113.493 355.957 112.62 356.83C111.747 357.703 110.687 358.139 109.44 358.139H51.4596C50.2127 358.139 49.1528 358.576 48.28 359.449C47.4072 360.321 46.9708 361.381 46.9708 362.628ZM166.176 460.447H137.934C136.562 460.447 135.44 460.011 134.567 459.138C133.819 458.265 133.445 457.205 133.445 455.958V328.214C133.445 326.967 133.819 325.907 134.567 325.034C135.44 324.161 136.562 323.725 137.934 323.725H166.176C167.423 323.725 168.483 324.161 169.356 325.034C170.228 325.907 170.665 326.967 170.665 328.214V455.958C170.665 457.205 170.228 458.265 169.356 459.138C168.483 460.011 167.423 460.447 166.176 460.447ZM324.191 328.027V455.958C324.191 457.205 323.755 458.265 322.882 459.138C322.009 460.011 320.949 460.447 319.702 460.447H292.021C290.774 460.447 289.465 460.073 288.093 459.325C286.722 458.577 285.662 457.704 284.914 456.707L236.098 388.065C235.35 387.067 234.539 386.693 233.666 386.943C232.918 387.067 232.544 387.753 232.544 389V455.958C232.544 457.205 232.108 458.265 231.235 459.138C230.362 460.011 229.302 460.447 228.055 460.447H200.187C198.94 460.447 197.88 460.011 197.008 459.138C196.135 458.265 195.698 457.205 195.698 455.958V328.027C195.698 326.78 196.135 325.72 197.008 324.847C197.88 323.974 198.94 323.538 200.187 323.538H228.242C229.489 323.538 230.798 323.912 232.17 324.66C233.542 325.284 234.601 326.094 235.35 327.092L283.979 395.733C284.727 396.731 285.475 397.167 286.223 397.043C287.096 396.918 287.532 396.232 287.532 394.985V328.027C287.532 326.78 287.969 325.72 288.841 324.847C289.714 323.974 290.774 323.538 292.021 323.538H319.702C320.949 323.538 322.009 323.974 322.882 324.847C323.755 325.72 324.191 326.78 324.191 328.027ZM352.6 455.958V328.027C352.6 326.78 353.036 325.72 353.909 324.847C354.782 323.974 355.842 323.538 357.089 323.538H408.149C427.725 323.538 443.748 329.274 456.217 340.745C462.95 346.98 468.062 354.399 471.554 363.002C475.045 371.606 476.791 381.269 476.791 391.993C476.791 402.716 475.045 412.442 471.554 421.17C468.062 429.774 462.95 437.193 456.217 443.427C449.982 449.038 442.813 453.278 434.708 456.145C426.728 459.013 417.875 460.447 408.149 460.447H357.089C355.842 460.447 354.782 460.011 353.909 459.138C353.036 458.265 352.6 457.205 352.6 455.958ZM394.121 426.033H408.149C411.64 426.033 415.256 425.596 418.997 424.724C422.738 423.851 426.104 422.23 429.097 419.861C432.089 417.367 434.521 413.938 436.391 409.574C438.386 405.085 439.384 399.287 439.384 392.18C439.384 385.072 438.386 379.337 436.391 374.972C434.521 370.484 432.027 367.055 428.91 364.686C425.917 362.192 422.551 360.508 418.81 359.636C415.194 358.763 411.64 358.326 408.149 358.326H394.121C392.875 358.326 391.815 358.763 390.942 359.636C390.069 360.508 389.633 361.568 389.633 362.815V421.544C389.633 422.791 390.069 423.851 390.942 424.724C391.815 425.596 392.875 426.033 394.121 426.033ZM530.261 362.441V370.297C530.261 371.543 530.697 372.603 531.57 373.476C532.443 374.349 533.503 374.785 534.749 374.785H585.436C586.683 374.785 587.743 375.222 588.615 376.095C589.488 376.967 589.925 378.027 589.925 379.274V405.085C589.925 406.332 589.488 407.392 588.615 408.265C587.743 409.137 586.683 409.574 585.436 409.574H534.749C533.503 409.574 532.443 410.01 531.57 410.883C530.697 411.756 530.261 412.816 530.261 414.063V421.17C530.261 422.417 530.697 423.477 531.57 424.35C532.443 425.222 533.503 425.659 534.749 425.659H592.917C594.164 425.659 595.224 426.095 596.097 426.968C596.97 427.841 597.406 428.901 597.406 430.148V455.958C597.406 457.205 596.97 458.265 596.097 459.138C595.224 460.011 594.164 460.447 592.917 460.447H497.717C496.47 460.447 495.41 460.011 494.537 459.138C493.664 458.265 493.228 457.205 493.228 455.958V328.027C493.228 326.78 493.664 325.72 494.537 324.847C495.41 323.974 496.47 323.538 497.717 323.538H592.917C594.164 323.538 595.224 323.974 596.097 324.847C596.97 325.72 597.406 326.78 597.406 328.027V353.463C597.406 354.71 596.97 355.77 596.097 356.643C595.224 357.516 594.164 357.952 592.917 357.952H534.749C533.503 357.952 532.443 358.389 531.57 359.262C530.697 360.134 530.261 361.194 530.261 362.441ZM653.632 460.447H625.764C624.517 460.447 623.457 460.011 622.584 459.138C621.711 458.265 621.275 457.205 621.275 455.958V328.027C621.275 326.78 621.711 325.72 622.584 324.847C623.457 323.974 624.517 323.538 625.764 323.538H683.931C691.163 323.538 697.834 324.785 703.944 327.279C710.054 329.648 715.228 333.014 719.468 337.378C723.832 341.743 727.199 346.917 729.568 352.902C732.062 358.887 733.308 365.496 733.308 372.728C733.308 376.718 732.81 380.708 731.812 384.698C730.939 388.564 729.63 392.242 727.884 395.733C726.139 399.225 724.081 402.404 721.712 405.272C719.343 408.015 716.662 410.322 713.67 412.192C712.672 412.94 711.987 413.876 711.612 414.998C711.363 415.995 711.612 416.993 712.361 417.99C717.099 424.225 722.086 430.646 727.323 437.255C732.56 443.863 737.236 449.911 741.351 455.397C742.099 456.395 742.286 457.517 741.912 458.764C741.538 459.886 740.728 460.447 739.481 460.447H704.692C703.445 460.447 702.074 460.135 700.577 459.512C699.206 458.764 698.146 457.891 697.398 456.894C693.408 451.657 689.418 446.357 685.428 440.996C681.562 435.634 677.697 430.21 673.832 424.724C673.083 423.726 672.024 422.916 670.652 422.292C669.28 421.544 667.971 421.17 666.724 421.17H662.609C661.363 421.17 660.303 421.606 659.43 422.479C658.557 423.352 658.121 424.412 658.121 425.659V455.958C658.121 457.205 657.684 458.265 656.811 459.138C655.939 460.011 654.879 460.447 653.632 460.447ZM662.609 386.756H682.435C683.931 386.756 685.49 386.506 687.111 386.007C688.732 385.384 690.228 384.511 691.6 383.389C692.971 382.142 694.094 380.646 694.966 378.9C695.839 377.155 696.276 375.097 696.276 372.728C696.276 371.481 696.026 370.047 695.528 368.426C695.153 366.681 694.405 365.06 693.283 363.563C692.286 361.942 690.852 360.633 688.981 359.636C687.236 358.513 685.054 357.952 682.435 357.952H662.609C661.363 357.952 660.303 358.389 659.43 359.262C658.557 360.134 658.121 361.194 658.121 362.441V382.267C658.121 383.514 658.557 384.574 659.43 385.446C660.303 386.319 661.363 386.756 662.609 386.756Z" fill="black"/>
</g>
<defs>
<clipPath id="clip0_1_3">
<rect width="800" height="800" fill="white"/>
</clipPath>
</defs>
</svg>
